<svg width="590" height="219" viewBox="0 0 590 219" fill="none" xmlns="http://www.w3.org/2000/svg">
<path d="M177.995 85.4913C182.971 76.5865 179.779 65.3246 170.875 60.3484C161.97 55.3721 150.708 58.5641 145.732 67.4689C145.732 67.4689 129.07 93.8215 116.089 114.692C117.759 117.36 119.999 119.326 121.522 121.782C121.522 121.782 134.437 142.39 153.376 125.252L177.995 85.4913Z" fill="url(#paint0_linear_104_497)"></path>
<g filter="url(#filter0_d_104_497)">
<path d="M54.882 84.8852C54.882 84.7378 48.3671 72.8866 59.58 62.6723C59.58 62.6723 67.2734 55.2243 78.8791 59.7913C78.8791 59.7913 84.4446 61.4119 88.7825 69.5637L102.402 91.5147L105.495 96.4745L116.643 114.366C116.643 114.366 136.795 151.589 176.146 88.1917L132.832 158.661C132.832 158.661 126.661 170.43 112.698 167.729C112.698 167.729 104.759 167.647 97.3435 153.537L54.882 84.8852Z" fill="#424143"></path>
</g>
<path d="M469.058 104.599C468.962 105.17 469.424 105.66 470.002 105.66H493.636C494.204 105.66 494.662 105.186 494.596 104.622C493.972 99.2668 490.161 94.309 481.806 94.309C474.269 94.309 469.893 99.6106 469.058 104.599ZM495.853 121.515C496.061 121.028 496.595 120.756 497.102 120.907L508.233 124.216C508.761 124.373 509.064 124.929 508.888 125.451C505.673 134.971 496.682 142.755 482.976 142.755C467.178 142.755 453.253 131.404 453.253 111.979C453.253 93.6069 466.827 81.6709 481.572 81.6709C499.359 81.6709 510.007 93.0218 510.007 111.511C510.007 112.919 509.914 114.375 509.845 115.312C509.804 115.863 509.326 116.309 508.773 116.309H469.63C469.059 116.309 468.601 116.787 468.67 117.353C469.533 124.413 475.728 129.415 483.093 129.415C489.929 129.415 493.856 126.194 495.853 121.515Z" fill="#424143"></path>
<path d="M432.426 141C431.949 141 431.539 140.663 431.476 140.191C431.41 139.702 431.348 139.114 431.295 138.473C431.212 137.457 429.592 136.964 428.854 137.668C425.335 141.023 420.092 142.521 415.224 142.521C401.298 142.521 393.341 132.341 393.341 119.819V84.4263C393.341 83.874 393.789 83.4263 394.341 83.4263H407.904C408.457 83.4263 408.904 83.874 408.904 84.4263V116.66C408.904 123.096 412.181 128.245 419.436 128.245C426.34 128.245 430.319 123.564 430.319 116.894V84.4263C430.319 83.874 430.767 83.4263 431.319 83.4263H444.883C445.435 83.4263 445.883 83.874 445.883 84.4263V130.585C445.883 134.311 446.129 137.709 446.347 139.883C446.406 140.478 445.942 141 445.343 141H432.426Z" fill="#424143"></path>
<path d="M346.289 107.883V140C346.289 140.552 345.842 141 345.289 141H331.726C331.174 141 330.726 140.552 330.726 140V84.426C330.726 83.8738 331.174 83.426 331.726 83.426H344.821C345.374 83.426 345.821 83.8738 345.821 84.426V86.8919C345.821 87.9108 347.33 88.3794 348.035 87.644C351.807 83.7107 357.358 81.9048 362.438 81.9048C376.715 81.9048 383.268 92.0855 383.268 104.724V140C383.268 140.552 382.82 141 382.268 141H368.704C368.152 141 367.704 140.552 367.704 140V107.415C367.704 100.979 364.545 95.9472 357.055 95.9472C350.268 95.9472 346.289 101.213 346.289 107.883Z" fill="#424143"></path>
<path d="M282.202 104.599C282.106 105.17 282.568 105.66 283.146 105.66H306.78C307.348 105.66 307.806 105.186 307.74 104.622C307.115 99.2668 303.305 94.309 294.949 94.309C287.413 94.309 283.037 99.6106 282.202 104.599ZM308.997 121.515C309.205 121.028 309.738 120.756 310.246 120.907L321.376 124.216C321.905 124.373 322.208 124.929 322.032 125.451C318.816 134.971 309.825 142.755 296.12 142.755C280.322 142.755 266.396 131.404 266.396 111.979C266.396 93.6069 279.971 81.6709 294.715 81.6709C312.502 81.6709 323.151 93.0218 323.151 111.511C323.151 112.919 323.057 114.375 322.988 115.312C322.948 115.863 322.469 116.309 321.917 116.309H282.773C282.203 116.309 281.745 116.787 281.814 117.353C282.677 124.413 288.871 129.415 296.237 129.415C303.073 129.415 307 126.194 308.997 121.515Z" fill="#424143"></path>
<path d="M266.19 83.4263C266.893 83.4263 267.377 84.1327 267.123 84.7882L245.548 140.362C245.399 140.747 245.029 141 244.616 141H230.408C230.002 141 229.636 140.754 229.483 140.378L206.779 84.8045C206.51 84.1466 206.994 83.4263 207.705 83.4263H222.604C223.023 83.4263 223.397 83.6869 223.542 84.0795L236.62 119.453C236.944 120.33 238.187 120.321 238.5 119.44L251.032 84.0921C251.174 83.693 251.551 83.4263 251.975 83.4263H266.19Z" fill="#424143"></path>
<defs>
<filter id="filter0_d_104_497" x="37.76" y="41.7996" width="153.626" height="140.302" filterUnits="userSpaceOnUse" color-interpolation-filters="sRGB">
<feFlood flood-opacity="0" result="BackgroundImageFix"></feFlood>
<feColorMatrix in="SourceAlpha" type="matrix" values="0 0 0 0 0 0 0 0 0 0 0 0 0 0 0 0 0 0 127 0" result="hardAlpha"></feColorMatrix>
<feOffset dy="-1.27"></feOffset>
<feGaussianBlur stdDeviation="7.62"></feGaussianBlur>
<feComposite in2="hardAlpha" operator="out"></feComposite>
<feColorMatrix type="matrix" values="0 0 0 0 0 0 0 0 0 0 0 0 0 0 0 0 0 0 0.25 0"></feColorMatrix>
<feBlend mode="normal" in2="BackgroundImageFix" result="effect1_dropShadow_104_497"></feBlend>
<feBlend mode="normal" in="SourceGraphic" in2="effect1_dropShadow_104_497" result="shape"></feBlend>
</filter>
<linearGradient id="paint0_linear_104_497" x1="163" y1="66.5" x2="130.5" y2="126.5" gradientUnits="userSpaceOnUse">
<stop stop-color="#FFA346"></stop>
<stop offset="1" stop-color="#F7762E"></stop>
</linearGradient>
</defs>
</svg>