<svg width="194" height="70" viewBox="0 0 194 70" fill="none" xmlns="http://www.w3.org/2000/svg">
  <g clip-path="url(#clip0_10_2)">
    <path d="M37.2589 28.1356H19.8575C18.2372 28.1356 16.9238 29.449 16.9238 31.0693V48.4706C16.9238 50.0909 18.2372 51.4043 19.8575 51.4043H37.2589C38.8791 51.4043 40.1926 50.0909 40.1926 48.4706V31.0693C40.1926 29.449 38.8791 28.1356 37.2589 28.1356Z" fill="#FAA74B"></path>
    <path d="M15.4304 11.2194H2.22492C0.99613 11.2194 0 12.2155 0 13.4443V26.6497C0 27.8785 0.99613 28.8747 2.22492 28.8747H15.4304C16.6592 28.8747 17.6553 27.8785 17.6553 26.6497V13.4443C17.6553 12.2155 16.6592 11.2194 15.4304 11.2194Z" fill="#64B6E5"></path>
    <path d="M26.0736 0H18.3452C17.6271 0 17.0451 0.582066 17.0451 1.30008V9.02854C17.0451 9.74656 17.6271 10.3286 18.3452 10.3286H26.0736C26.7916 10.3286 27.3737 9.74656 27.3737 9.02854V1.30008C27.3737 0.582066 26.7916 0 26.0736 0Z" fill="#F37F4E"></path>
    <path d="M12.9553 38.1079C15.05 39.2467 17.3938 39.8495 19.7779 39.8628C23.0717 39.8628 24.91 38.3467 24.91 36.1066C24.91 34.0257 23.4886 32.8014 19.903 31.5355C15.2712 29.9018 12.3223 27.4912 12.3223 23.5303C12.3223 19.0388 16.1619 15.6085 22.253 15.6085C25.2852 15.6085 27.5594 16.2643 29.0111 16.9996L27.7603 21.0401C26.0184 20.1567 24.0885 19.708 22.1355 19.7324C18.8796 19.7324 17.462 21.4494 17.462 23.0414C17.462 25.1639 19.0919 26.1456 22.8443 27.5897C27.7262 29.3864 30.1065 31.7932 30.1065 35.7541C30.1065 40.166 26.6952 44.0018 19.4254 44.0018C16.4614 44.0018 13.3609 43.1869 11.8448 42.2886L12.9553 38.1079Z" fill="black"></path>
    <path d="M59.508 32.7673H48.5161V40.8521H60.7247V44.976H43.5015V17.4544H60.1221V21.5783H48.5161V28.6852H59.508V32.7673Z" fill="black"></path>
    <path d="M76.9208 37.1793L74.4078 44.976H68.9118L78.2626 17.4544H85.0586L94.5344 44.976H88.8224L86.1692 37.1793H76.9208ZM85.2595 33.3889L82.9853 26.6081C82.4205 24.9365 81.943 23.0565 81.5109 21.4646H81.4237C80.9916 23.0565 80.5595 24.9782 80.0402 26.6081L77.7888 33.3889H85.2595Z" fill="black"></path>
    <path d="M125.058 44.161C123.784 44.7713 120.979 45.3853 117.428 45.3853C108.043 45.3853 102.342 39.9121 102.342 31.5431C102.342 22.4766 109.093 17.0072 118.129 17.0072C121.681 17.0072 124.224 17.7008 125.331 18.2314L124.148 22.234C122.306 21.508 120.34 21.1476 118.36 21.1727C112.353 21.1727 108.009 24.6826 108.009 31.2967C108.009 37.3612 111.826 41.2197 118.315 41.2197C120.509 41.2197 122.787 40.8104 124.194 40.2001L125.058 44.161Z" fill="black"></path>
    <path d="M161.009 30.929C161.009 40.1585 155.058 45.427 146.985 45.427C138.733 45.427 133.522 39.5065 133.522 31.4218C133.522 22.9693 139.169 17.0185 147.421 17.0185C155.972 17.0072 161.009 23.0906 161.009 30.929ZM139.165 31.3384C139.165 36.9329 142.16 41.3827 147.284 41.3827C152.409 41.3827 155.365 36.8912 155.365 31.1489C155.365 25.9637 152.629 21.0628 147.284 21.0628C141.94 21.0628 139.165 25.6643 139.165 31.3384Z" fill="black"></path>
    <path d="M171.372 44.976V17.4544H177.304L184.676 29.2575C186.571 32.3201 188.235 34.1091 189.55 37.0883H189.634C189.297 33.7536 189.142 30.4031 189.167 27.0515V17.4544H194V44.976H188.618L181.177 32.8886C179.358 29.8564 177.448 27.7641 176.049 24.6636L175.924 24.7015C176.136 28.2568 176.178 30.6031 176.178 35.1363V44.9911L171.372 44.976Z" fill="black"></path>
    <path d="M58.659 64.0564C58.6716 64.7231 58.5431 65.3848 58.2818 65.9982C58.0205 66.6116 57.6323 67.1628 57.1429 67.6155C56.664 68.0841 56.0966 68.4528 55.4739 68.7001C54.8512 68.9474 54.1855 69.0683 53.5156 69.0559C52.1282 69.1067 50.7773 68.605 49.7593 67.661C49.2638 67.1889 48.8729 66.6181 48.6117 65.9854C48.3506 65.3528 48.225 64.6724 48.2432 63.9882H49.9489C49.9492 64.9393 50.3126 65.8544 50.9647 66.5467C51.6395 67.1719 52.5255 67.5193 53.4454 67.5193C54.3654 67.5193 55.2514 67.1719 55.9262 66.5467C56.2507 66.2368 56.5072 65.8628 56.6795 65.4484C56.8518 65.0341 56.936 64.5884 56.9268 64.1398C56.9567 63.6992 56.8804 63.2579 56.7043 62.8529C56.5281 62.448 56.2574 62.0912 55.9148 61.8126C55.0729 61.21 54.1292 60.7645 53.1289 60.4973C52.5382 60.3262 51.9574 60.1225 51.3892 59.8871C50.9068 59.6805 50.4502 59.4185 50.0285 59.1063C49.5847 58.7845 49.2384 58.3464 49.0278 57.8403C48.7998 57.2562 48.6903 56.6326 48.7056 56.0058C48.6891 55.3906 48.8052 54.7791 49.0458 54.2128C49.2865 53.6464 49.6462 53.1385 50.1005 52.7234C51.0223 51.8582 52.2479 51.3911 53.5118 51.4233C54.1305 51.41 54.7456 51.5204 55.321 51.7483C55.8964 51.9761 56.4205 52.3166 56.8624 52.7499C57.3095 53.1743 57.6626 53.6877 57.8989 54.257C58.1353 54.8263 58.2496 55.4388 58.2345 56.0551H56.5289C56.5322 55.6529 56.4555 55.2541 56.3032 54.8819C56.1509 54.5097 55.9261 54.1715 55.6419 53.887C55.3713 53.5927 55.0418 53.3585 54.6748 53.1999C54.3078 53.0412 53.9116 52.9615 53.5118 52.966C52.7003 52.9471 51.9143 53.2495 51.3247 53.8074C51.0315 54.0776 50.7995 54.4076 50.6445 54.775C50.4896 55.1425 50.4152 55.5389 50.4264 55.9376C50.4225 56.2296 50.4608 56.5207 50.5401 56.8018C50.6175 57.057 50.7553 57.2897 50.9419 57.4802C51.1352 57.6811 51.321 57.8593 51.4498 57.9768C51.6684 58.1502 51.9144 58.2859 52.1776 58.3785C52.5149 58.5188 52.7537 58.6135 52.9015 58.6666C53.0493 58.7197 53.3222 58.8068 53.7316 58.9205L54.4897 59.1404C57.2692 59.9743 58.659 61.6129 58.659 64.0564Z" fill="#818285"></path>
    <path d="M83.1217 60.3647C83.1251 61.5422 82.8757 62.7068 82.3906 63.7798C81.9054 64.8528 81.1957 65.8093 80.3093 66.5846C81.0087 67.1995 81.9141 67.5284 82.8451 67.5056V69.0483C82.1437 69.0699 81.4444 68.9607 80.7831 68.7261C80.1411 68.4519 79.5522 68.067 79.0434 67.589C77.5253 68.5819 75.7439 69.0956 73.9302 69.0634C71.5336 69.0964 69.2198 68.1872 67.4867 66.5315C66.6136 65.7505 65.9187 64.7909 65.4491 63.7177C64.9795 62.6445 64.7463 61.4829 64.7652 60.3116C64.7345 59.1266 64.955 57.9486 65.4123 56.8549C65.8696 55.7613 66.5533 54.777 67.4184 53.9666C69.1967 52.3287 71.5259 51.4195 73.9435 51.4195C76.3611 51.4195 78.6903 52.3287 80.4685 53.9666C81.3337 54.7881 82.0169 55.7821 82.4739 56.8841C82.9309 57.9862 83.1516 59.1719 83.1217 60.3647ZM81.4161 60.3192C81.4344 59.3443 81.2506 58.3762 80.8761 57.476C80.5017 56.5757 79.9447 55.7628 79.2405 55.0885C77.8246 53.7075 75.9251 52.9345 73.9473 52.9345C71.9694 52.9345 70.0699 53.7075 68.6541 55.0885C67.9449 55.7716 67.3845 56.5939 67.0081 57.5038C66.6318 58.4137 66.4476 59.3916 66.4671 60.376C66.4636 61.0334 66.5647 61.6872 66.7665 62.3129C67.9255 61.9292 69.1388 61.7346 70.3597 61.7368C71.9159 61.7007 73.461 62.0074 74.8854 62.6351C76.3952 63.3887 77.7974 64.341 79.0547 65.4664C80.6315 63.9402 81.4186 62.2244 81.4161 60.3192ZM77.7319 66.3837C76.4685 65.4159 75.6927 64.8398 75.4046 64.6553C73.8013 63.7268 71.9733 63.2573 70.1209 63.2984C69.213 63.2766 68.3102 63.4404 67.4677 63.7797C67.7293 64.2792 68.0626 64.7376 68.457 65.1405C69.1527 65.9109 70.0067 66.5218 70.9606 66.9313C71.9144 67.3409 72.9456 67.5394 73.9833 67.5132C75.3191 67.5462 76.6311 67.1562 77.7319 66.3988V66.3837Z" fill="#818285"></path>
    <path d="M101.846 62.3242C101.891 63.5383 101.671 64.7476 101.202 65.8682C100.77 66.8502 100.046 67.6749 99.1283 68.2296C98.1885 68.766 97.1251 69.0482 96.043 69.0482C94.9608 69.0482 93.8974 68.766 92.9576 68.2296C92.0397 67.6749 91.3156 66.8502 90.8843 65.8682C90.4152 64.7476 90.1953 63.5383 90.24 62.3242V51.7113H91.9418V62.3242C91.9418 63.6888 92.1351 64.7197 92.518 65.4096C92.8631 66.0432 93.3726 66.5721 93.9929 66.9406C94.6132 67.3091 95.3214 67.5036 96.043 67.5036C96.7645 67.5036 97.4727 67.3091 98.093 66.9406C98.7133 66.5721 99.2228 66.0432 99.568 65.4096C99.947 64.7197 100.144 63.6888 100.144 62.3242V51.7113H101.846V62.3242Z" fill="#818285"></path>
    <path d="M124.652 68.7488H122.784L120.32 63.0141H112.398L109.919 68.7488H108.145L115.427 51.6924H117.322L124.652 68.7488ZM119.653 61.4714L116.382 53.6406L113.043 61.4714H119.653Z" fill="#818285"></path>
    <path d="M142.687 57.2111C142.702 57.8773 142.581 58.5397 142.332 59.1576C142.082 59.7754 141.709 60.3358 141.235 60.8043C140.272 61.7699 138.981 62.3371 137.619 62.3925L142.433 68.7488H140.291L134.511 61.0242C136.414 61.0242 137.634 60.9395 138.172 60.7702C138.973 60.5402 139.685 60.0706 140.212 59.4247C140.723 58.7787 140.991 57.9739 140.97 57.1505C140.968 56.4853 140.793 55.832 140.462 55.2553C140.151 54.6769 139.68 54.2004 139.105 53.8832C138.305 53.4549 137.21 53.2389 135.788 53.2389H132.817V68.7413H131.111V51.6848H135.443C137.346 51.6848 138.743 51.8996 139.635 52.3292C140.553 52.7645 141.327 53.4541 141.864 54.3161C142.402 55.1782 142.681 56.1764 142.668 57.1922L142.687 57.2111Z" fill="#818285"></path>
    <path d="M159.042 68.7488H149.718V51.6924H159.042V53.2351H151.416V59.364H158.788V60.9067H151.416V67.1948H159.042V68.7488Z" fill="#818285"></path>
  </g>
  <defs>
    <clipPath id="clip0_10_2">
      <rect width="194" height="69.0483" fill="white"></rect>
    </clipPath>
  </defs>
</svg>